<svg class="vector" width="300px" height="300px" xmlns="http://www.w3.org/2000/svg" baseProfile="full" version="1.1" style="width: 300px; height: 300px; stroke: rgb(0, 0, 0); stroke-width: 10; fill: none; stroke-linecap: round; stroke-linejoin: miter;"><g transform="translate(0,0)"><path id="layer_3" d="" style="stroke: rgb(204, 204, 204);"></path><path id="layer_2" d="" style="stroke: rgb(153, 153, 153);"></path><path id="layer_1" d="M60,60 L60,60 L60,240 L240,240 L240,240 L240,60 M120,120 L120,120 L180,180 M120,180 L120,180 L180,120 " style="stroke: black;"></path></g><g><path id="mirror_layer_3" d="" transform="translate(300,0),scale(-1,1)" style="stroke: rgb(204, 204, 204);"></path><path id="mirror_layer_2" d="" transform="translate(300,0),scale(-1,1)" style="stroke: rgb(153, 153, 153);"></path><path id="mirror_layer_1" d="M60,60 L60,60 L60,240 L240,240 L240,240 L240,60 M120,120 L120,120 L180,180 M120,180 L120,180 L180,120 " transform="translate(300,0),scale(-1,1)" style="stroke: black;"></path></g></svg>